<svg width="27" height="27" viewBox="0 0 27 27" fill="none" xmlns="http://www.w3.org/2000/svg">
<path d="M13.5 15.75C15.9818 15.75 18 13.7318 18 11.25C18 8.76825 15.9818 6.75 13.5 6.75C11.0182 6.75 9 8.76825 9 11.25C9 13.7318 11.0182 15.75 13.5 15.75ZM13.5 9C14.7409 9 15.75 10.0091 15.75 11.25C15.75 12.4909 14.7409 13.5 13.5 13.5C12.2591 13.5 11.25 12.4909 11.25 11.25C11.25 10.0091 12.2591 9 13.5 9Z" fill="#F8F8F8"/>
<path d="M12.8475 24.5407C13.0379 24.6767 13.266 24.7498 13.5 24.7498C13.7339 24.7498 13.9621 24.6767 14.1525 24.5407C14.4945 24.2989 22.5326 18.495 22.5 11.25C22.5 6.28763 18.4624 2.25 13.5 2.25C8.5376 2.25 4.49998 6.28762 4.49998 11.2444C4.46735 18.495 12.5055 24.2989 12.8475 24.5407ZM13.5 4.5C17.2226 4.5 20.25 7.52738 20.25 11.2556C20.2736 16.2484 15.3135 20.7315 13.5 22.2019C11.6876 20.7304 6.72635 16.2461 6.74998 11.25C6.74998 7.52738 9.77735 4.5 13.5 4.5Z" fill="#F8F8F8"/>
</svg>
