<svg width="29" height="19" viewBox="0 0 29 19" fill="none" xmlns="http://www.w3.org/2000/svg">
<g clip-path="url(#clip0_102_44)">
<path d="M19.9182 9.47104L27.3506 3.01371V15.8547L19.9182 9.47104ZM10.3409 10.5646L12.9509 12.8302C13.3605 13.1782 13.8946 13.3885 14.4783 13.3885H14.4988H14.5145C15.0993 13.3885 15.6334 13.177 16.0479 12.8266L16.0443 12.829L18.6543 10.5634L26.5882 17.3772H2.41062L10.3409 10.5646ZM2.39975 1.48275H26.6027L14.9773 11.5796C14.8466 11.683 14.6848 11.7392 14.5181 11.7391H14.5012H14.4855C14.3183 11.7393 14.1559 11.6826 14.0251 11.5784L14.0263 11.5796L2.39975 1.48275ZM1.64938 3.0125L9.08063 9.46983L1.64938 15.8498V3.0125ZM27.7494 0.0629574C27.4594 -0.0820426 27.1186 -0.166626 26.7573 -0.166626H2.24629C1.89607 -0.166542 1.55066 -0.0850506 1.23733 0.0714157L1.25063 0.0653739C0.875526 0.250383 0.559637 0.536598 0.338641 0.891687C0.117644 1.24678 0.000347212 1.65659 0 2.07483L0 16.7827C0.000639696 17.3779 0.23738 17.9486 0.658276 18.3695C1.07917 18.7904 1.64985 19.0271 2.24508 19.0278H26.7537C27.3489 19.0271 27.9196 18.7904 28.3405 18.3695C28.7614 17.9486 28.9982 17.3779 28.9988 16.7827V2.07483C28.9988 1.19637 28.4925 0.435124 27.7554 0.0689992L27.7421 0.0629574H27.7494Z" fill="#F8F8F8"/>
</g>
<defs>
<clipPath id="clip0_102_44">
<rect width="29" height="19" fill="white"/>
</clipPath>
</defs>
</svg>
