<svg width="22" height="22" viewBox="0 0 22 22" fill="none" xmlns="http://www.w3.org/2000/svg">
<path d="M19.25 11C19.2553 13.0215 18.5181 14.9747 17.1785 16.4886C15.8389 18.0026 13.9901 18.972 11.9829 19.2129C9.97579 19.4537 7.95008 18.9492 6.29031 17.7952C4.63054 16.6412 3.45226 14.9179 2.97913 12.9525C4.15801 14.0595 5.71614 14.6729 7.33329 14.6667C8.73656 14.6676 10.1014 14.2084 11.2188 13.3596C12.3363 12.5107 13.1446 11.319 13.5201 9.96689C13.8955 8.61479 13.8174 7.17688 13.2977 5.87342C12.778 4.56995 11.8453 3.47279 10.6425 2.75H11C13.188 2.75 15.2864 3.61919 16.8336 5.16637C18.3808 6.71354 19.25 8.81196 19.25 11Z" stroke="white" stroke-width="1.2" stroke-linecap="round" stroke-linejoin="round"/>
</svg>
