<svg width="13" height="16" viewBox="0 0 13 16" fill="none" xmlns="http://www.w3.org/2000/svg">
<path d="M3.25 0H1.625C1.19402 0 0.780698 0.168571 0.475952 0.468629C0.171205 0.768687 0 1.17565 0 1.6V14.4C0 14.8243 0.171205 15.2313 0.475952 15.5314C0.780698 15.8314 1.19402 16 1.625 16H3.25C3.68098 16 4.0943 15.8314 4.39905 15.5314C4.70379 15.2313 4.875 14.8243 4.875 14.4V1.6C4.875 1.17565 4.70379 0.768687 4.39905 0.468629C4.0943 0.168571 3.68098 0 3.25 0ZM11.375 0H9.75C9.31902 0 8.9057 0.168571 8.60095 0.468629C8.29621 0.768687 8.125 1.17565 8.125 1.6V14.4C8.125 14.8243 8.29621 15.2313 8.60095 15.5314C8.9057 15.8314 9.31902 16 9.75 16H11.375C11.806 16 12.2193 15.8314 12.524 15.5314C12.8288 15.2313 13 14.8243 13 14.4V1.6C13 1.17565 12.8288 0.768687 12.524 0.468629C12.2193 0.168571 11.806 0 11.375 0Z" fill="#545454"/>
</svg>
